<svg width="40" height="40" viewBox="0 0 40 40" fill="none" xmlns="http://www.w3.org/2000/svg">
    <path d="M34.0433 12.3162L23.6266 6.587C23.4728 6.50238 23.3001 6.45801 23.1245 6.45801C22.949 6.45801 22.7762 6.50238 22.6224 6.587L12.2058 12.3162C12.0424 12.4061 11.9062 12.5382 11.8114 12.6987C11.7165 12.8592 11.6665 13.0422 11.6665 13.2287C11.6665 13.4151 11.7165 13.5981 11.8114 13.7586C11.9062 13.9191 12.0424 14.0512 12.2058 14.1412L22.0828 19.5735V30.7391L18.9203 28.9995L17.9162 30.8235L22.6224 33.412C22.7762 33.4968 22.9489 33.5413 23.1245 33.5413C23.3001 33.5413 23.4728 33.4968 23.6266 33.412L34.0433 27.6828C34.2066 27.593 34.3429 27.4609 34.4378 27.3004C34.5327 27.1398 34.5828 26.9568 34.5829 26.7703V13.2287C34.5828 13.0422 34.5327 12.8591 34.4378 12.6986C34.3429 12.5381 34.2066 12.406 34.0433 12.3162ZM23.1245 8.68908L31.3797 13.2287L23.1245 17.7682L14.8693 13.2287L23.1245 8.68908ZM32.4995 26.1547L24.1662 30.738V19.5724L32.4995 14.9891V26.1547Z"
          fill="#CC163F"/>
    <path d="M13.7496 19.9993H5.41626V17.916H13.7496V19.9993Z" fill="#CC163F"/>
    <path d="M15.8333 28.3333H7.5V26.25H15.8333V28.3333Z" fill="#CC163F"/>
    <path d="M17.9165 24.1663H9.58313V22.083H17.9165V24.1663Z" fill="#CC163F"/>
</svg>
