<svg width="16" height="18" viewBox="0 0 16 18" fill="none" xmlns="http://www.w3.org/2000/svg">
    <path fill-rule="evenodd" clip-rule="evenodd"
          d="M2.14849 14.1259C1.95311 14.321 1.95311 14.6374 2.14849 14.8326C2.34388 15.0277 2.66066 15.0277 2.85604 14.8326L7.98899 9.70613L13.1378 14.8551C13.3331 15.0504 13.6496 15.0504 13.8449 14.8551C14.0401 14.6599 14.0401 14.3433 13.8449 14.148L8.69655 8.99947L13.851 3.85155C14.0464 3.65641 14.0464 3.34003 13.851 3.14489C13.6556 2.94975 13.3389 2.94975 13.1435 3.14489L7.98946 8.29235L2.85713 3.1598C2.66187 2.96453 2.34529 2.96453 2.15004 3.1598C1.95478 3.35507 1.95478 3.67166 2.15004 3.86692L7.2819 8.99901L2.14849 14.1259Z"
          fill="#595959"/>
</svg>
