<svg width="41" height="40" viewBox="0 0 41 40" fill="none" xmlns="http://www.w3.org/2000/svg">
    <rect x="0.00317383" width="40" height="40" rx="8" fill="#F5F4F4"/>
    <path d="M26.5657 13.4375L13.6218 26.3811" stroke="#CC163F" stroke-linecap="round"/>
    <path d="M18.6282 16.0625C18.6282 17.4777 17.4809 18.625 16.0657 18.625C14.6504 18.625 13.5032 17.4777 13.5032 16.0625C13.5032 14.6473 14.6504 13.5 16.0657 13.5C17.4809 13.5 18.6282 14.6473 18.6282 16.0625Z"
          stroke="#CC163F"/>
    <path d="M26.5032 23.9375C26.5032 25.3527 25.3559 26.5 23.9407 26.5C22.5254 26.5 21.3782 25.3527 21.3782 23.9375C21.3782 22.5223 22.5254 21.375 23.9407 21.375C25.3559 21.375 26.5032 22.5223 26.5032 23.9375Z"
          stroke="#CC163F"/>
</svg>
