<svg width="41" height="40" viewBox="0 0 41 40" fill="none" xmlns="http://www.w3.org/2000/svg">
    <rect x="0.00317383" width="40" height="40" rx="8" fill="#F5F4F4"/>
    <line x1="10.9122" y1="28.5" x2="10.9122" y2="11.5" stroke="#CC163F" stroke-linecap="round"/>
    <path d="M28.4123 26.5454L11.0032 26.5454L11.0032 13.4545L28.4123 13.4545C28.9646 13.4545 29.4123 13.9022 29.4123 14.4545L29.4123 25.5454C29.4123 26.0977 28.9646 26.5454 28.4123 26.5454Z"
          stroke="#CC163F"/>
    <path d="M26.5997 23.375L24.3497 23.375" stroke="#CC163F" stroke-linecap="round"/>
    <path d="M17.0372 17.6172C18.0323 17.6172 18.9124 17.9061 19.5308 18.3478C20.1503 18.7903 20.4747 19.3564 20.4747 19.9297C20.4747 20.503 20.1503 21.0691 19.5308 21.5116C18.9124 21.9533 18.0323 22.2422 17.0372 22.2422C15.8967 22.2422 14.9123 21.8633 14.296 21.3142C13.8375 20.9057 13.5997 20.4223 13.5997 19.9297C13.5997 19.4771 13.7998 19.0342 14.1864 18.6484C14.7908 18.0453 15.8241 17.6172 17.0372 17.6172Z"
          stroke="#CC163F"/>
</svg>
